# xmcd
# Track frame offsets:
# 150
# 13679
# 24966
# 36669
# 49406
# 63883
# 75711
# 90615
# 104551
# 119087
# 132631
#
# Disc length: 1941 seconds
# Revision: 0
# Processed by: cddbd v1.5.2PL0 Copyright (c) Steve Scherf et al.
# Submitted via: VisiTrax 2.11.3.279 - For more info visit www.synapsa.com
#
DISCID=9b07930b
DTITLE=Patti Page - Patti Page's Greatest Hits
DYEAR=1900
DGENRE=Easy Listening
TTITLE0=Mockin' Bird Hill
TTITLE1=(How Much Is That) Doggie In The Window
TTITLE2=Cross Over The Bridge
TTITLE3=Detour
TTITLE4=Mister And Mississippi
TTITLE5=Old Cape Cod
TTITLE6=I Went To Your Wedding
TTITLE7=Tennessee Waltz
TTITLE8=With My Eyes Wide Open I'm Dreaming
TTITLE9=Changing Parters
TTITLE10=Allegheny Moon
EXTD=Columbia Records CBS Inc
EXTT0=
EXTT1=
EXTT2=
EXTT3=
EXTT4=
EXTT5=
EXTT6=
EXTT7=
EXTT8=
EXTT9=
EXTT10=
PLAYORDER=
